<svg width="100" height="100" xmlns="http://www.w3.org/2000/svg">
    <g transform="translate(5 8)">
        <rect x="4" y="4" width="82" height="60" fill="#d0d0d0"/>

        <!-- <path d="M 4 50 L 20 50 L 30 70 L 45 45 L 86 40" stroke="#82429d" stroke-width="5" fill="none"/> -->
        <path d="M 4 50 L 10 50 L 20 60 L 30 60 L 40 50 L 50 45 L 60 40 L 70 40 L 86 40" stroke="#82429d" stroke-width="7" fill="none"/>
        <path d="M 4 45 L 20 32 L 30 40 L 40 28 L 50 22 L 60 28 L 70 10 L 86 20" stroke="#135570" stroke-width="7" fill="none"/>
        
        <path d="M 40 62 L 50 62 L 50 86 L 70 86 L 70 92 L 20 92 L 20 86 L 40 86" fill="#333333"/>
        <path d="M 8 0 Q 0 0, 0 8 L 0 68 Q 0 76, 8 76 L 82 76 Q 90 76, 90 68 L 90 8 Q 90 0, 82 0 M 8 8 L 82 8 L 82 60 L 8 60" fill="black"/>
        <circle cx="45" cy="68" r="2.5" fill="#aa5500"/>

    </g>
<!-- lila: 82429d -->
<!-- blue: 135570 -->
</svg>
